<?xml version="1.0" encoding="UTF-8" standalone="no"?>
<!-- Generator: Adobe Illustrator 20.1.0, SVG Export Plug-In . SVG Version: 6.00 Build 0)  -->

<svg
   xmlns:dc="http://purl.org/dc/elements/1.1/"
   xmlns:cc="http://creativecommons.org/ns#"
   xmlns:rdf="http://www.w3.org/1999/02/22-rdf-syntax-ns#"
   xmlns:svg="http://www.w3.org/2000/svg"
   xmlns="http://www.w3.org/2000/svg"
   xmlns:sodipodi="http://sodipodi.sourceforge.net/DTD/sodipodi-0.dtd"
   xmlns:inkscape="http://www.inkscape.org/namespaces/inkscape"
   version="1.1"
   id="Layer_1"
   x="0px"
   y="0px"
   viewBox="0 0 841.9 595.3"
   style="enable-background:new 0 0 841.9 595.3;"
   xml:space="preserve"
   sodipodi:docname="iroha.svg"
   inkscape:version="0.92.2 2405546, 2018-03-11"><metadata
   id="metadata225"><rdf:RDF><cc:Work
       rdf:about=""><dc:format>image/svg+xml</dc:format><dc:type
         rdf:resource="http://purl.org/dc/dcmitype/StillImage" /></cc:Work></rdf:RDF></metadata><defs
   id="defs223" /><sodipodi:namedview
   pagecolor="#ffffff"
   bordercolor="#666666"
   borderopacity="1"
   objecttolerance="10"
   gridtolerance="10"
   guidetolerance="10"
   inkscape:pageopacity="0"
   inkscape:pageshadow="2"
   inkscape:window-width="1918"
   inkscape:window-height="1058"
   id="namedview221"
   showgrid="false"
   inkscape:zoom="0.5606491"
   inkscape:cx="306.26405"
   inkscape:cy="222.62544"
   inkscape:window-x="1280"
   inkscape:window-y="20"
   inkscape:window-maximized="0"
   inkscape:current-layer="Layer_1" />
<style
   type="text/css"
   id="style2">
    .st0{fill:#E4232D;}
    .st1{fill:#E4232D;stroke:#FFFFFF;stroke-width:2;stroke-miterlimit:10;}
    .st2{fill:none;stroke:#FFFFFF;stroke-width:2;stroke-miterlimit:10;}
    .st3{fill:none;stroke:#FFFFFF;stroke-width:2.009;stroke-miterlimit:10;}
    .st4{fill:#FFFFFF;stroke:#FFFFFF;stroke-width:2;stroke-miterlimit:10;}
</style>

<g
   id="g80">
    
    <g
   id="g78">
	
	
	
	
	
	
	
	
	
	
	
	
	
	
	
	
	
	
	
	
	
	
	
	
	
	
	
	
	
	
    </g>
</g>













<g
   id="g302"><g
     id="g14">
    <path
   id="path4"
   d="M280.9,466.9h6.8v68.2h-6.8V466.9z" />
    <path
   id="path6"
   d="M303.1,466.9h13.6c7.6,0,12.7,0.3,15.4,0.9c4.1,0.9,7.3,2.9,9.9,6c2.5,3,3.8,6.8,3.8,11.3c0,3.7-0.9,7-2.6,9.8  c-1.7,2.8-4.2,4.9-7.5,6.4c-3.2,1.4-7.7,2.2-13.4,2.2l24.5,31.7h-8.4l-24.5-31.7h-3.9v31.7h-6.8V466.9z M309.9,473.5v23.2l11.8,0.1  c4.6,0,7.9-0.4,10.1-1.3c2.2-0.9,3.9-2.2,5.1-4.2c1.2-1.9,1.8-4,1.8-6.4c0-2.3-0.6-4.4-1.9-6.2c-1.2-1.9-2.9-3.2-4.9-4  c-2-0.8-5.4-1.2-10-1.2H309.9z" />
    <path
   id="path8"
   d="M389.4,465.1c10.3,0,19,3.4,25.9,10.3c7,6.9,10.4,15.4,10.4,25.5c0,10-3.5,18.5-10.4,25.4c-6.9,7-15.4,10.4-25.4,10.4  c-10.1,0-18.7-3.5-25.6-10.4c-7-6.9-10.4-15.3-10.4-25.1c0-6.6,1.6-12.6,4.8-18.2c3.2-5.6,7.5-10,13-13.1  C377.1,466.7,383,465.1,389.4,465.1z M389.7,471.8c-5,0-9.8,1.3-14.4,3.9c-4.5,2.6-8.1,6.2-10.6,10.6c-2.5,4.5-3.8,9.4-3.8,14.9  c0,8.1,2.8,15,8.4,20.5c5.6,5.6,12.4,8.4,20.3,8.4c5.3,0,10.2-1.3,14.7-3.9c4.5-2.6,8-6.1,10.5-10.5c2.5-4.5,3.8-9.4,3.8-14.9  c0-5.4-1.3-10.3-3.8-14.7c-2.5-4.4-6.1-7.9-10.7-10.5C399.7,473.1,394.8,471.8,389.7,471.8z" />
    <path
   id="path10"
   d="M438,466.9h6.8v28.6h34.7v-28.6h6.8v68.2h-6.8v-32.9h-34.7v32.9H438V466.9z" />
    <path
   id="path12"
   d="M528.9,466.9l31.8,68.2h-7.4l-10.7-22.4h-29.4l-10.6,22.4H495l32.2-68.2H528.9z M528,481.4L516.3,506h23.3L528,481.4z" />
</g><path
     id="path82"
     d="M621.5,205.2l-34.7-7.5l23.4-27.3c-20.4-20.2-64.2-25.5-109.2-10.9c-6.6,2.1-12.8,4.6-18.8,7.3     c0.7-6.5,1.1-13.1,1.1-20c0-47.3-18.6-87.3-44.1-100.5l-18.7,30.7l-17.9-30.7c-25.5,13.2-44,53.2-44,100.4c0,6.8,0.4,13.5,1.1,20     c-6-2.7-12.3-5.2-18.8-7.3c-45-14.6-88.8-9.3-109.2,10.9l23.4,27.3l-34.7,7.5c4.7,28.3,37,58.3,81.9,72.9c6.5,2.1,12.9,3.8,19.2,5.1     c-4.4,4.8-8.6,9.9-12.5,15.4c-27.8,38.3-36.3,81.6-23.4,107.2l33.2-13.8l-3.5,35.3c28.4,4.3,66.9-17.1,94.7-55.4     c4.1-5.6,7.8-11.4,11-17.2c3.2,5.8,6.9,11.5,11,17.2c27.8,38.2,66.3,59.7,94.7,55.4l-3.5-35.3l33.2,13.8     c12.9-25.7,4.5-68.9-23.4-107.2c-4-5.5-8.2-10.6-12.5-15.4c6.3-1.3,12.8-3,19.2-5.1C584.5,263.5,616.8,233.5,621.5,205.2z"
     class="st0" /><g
     id="g144">
    <line
   id="line84"
   y2="166.8"
   x2="482.1"
   y1="283"
   x1="321.8"
   class="st1" />
    <line
   id="line86"
   y2="283"
   x2="520.1"
   y1="283"
   x1="321.8"
   class="st1" />
    <line
   id="line88"
   y2="166.8"
   x2="359.8"
   y1="354.4"
   x1="420.9"
   class="st1" />
    <line
   id="line90"
   y2="166.8"
   x2="359.8"
   y1="283"
   x1="520.1"
   class="st1" />
    <line
   id="line92"
   y2="354.4"
   x2="420.9"
   y1="166.8"
   x1="482.1"
   class="st1" />
    <line
   id="line94"
   y2="283"
   x2="321.8"
   y1="197.6"
   x1="586.4"
   class="st1" />
    <line
   id="line96"
   y2="283"
   x2="520.1"
   y1="197.6"
   x1="255.5"
   class="st1" />
    <line
   id="line98"
   y2="166.8"
   x2="359.8"
   y1="391.5"
   x1="522.8"
   class="st1" />
    <line
   id="line100"
   y2="166.8"
   x2="482.1"
   y1="391.5"
   x1="319"
   class="st1" />
    <line
   id="line102"
   y2="197.6"
   x2="586.4"
   y1="166.8"
   x1="482.1"
   class="st1" />
    <line
   id="line104"
   y2="283"
   x2="520.1"
   y1="197.6"
   x1="586.4"
   class="st1" />
    <line
   id="line106"
   y2="391.5"
   x2="522.8"
   y1="283"
   x1="520.1"
   class="st1" />
    <line
   id="line108"
   y2="354.4"
   x2="420.9"
   y1="391.5"
   x1="522.8"
   class="st1" />
    <line
   id="line110"
   y2="391.5"
   x2="319"
   y1="354.4"
   x1="420.9"
   class="st1" />
    <line
   id="line112"
   y2="283"
   x2="321.8"
   y1="391.5"
   x1="319"
   class="st1" />
    <line
   id="line114"
   y2="197.6"
   x2="255.5"
   y1="283"
   x1="321.8"
   class="st1" />
    <line
   id="line116"
   y2="166.8"
   x2="359.8"
   y1="197.6"
   x1="255.5"
   class="st1" />
    <line
   id="line118"
   y2="283"
   x2="321.8"
   y1="166.8"
   x1="359.8"
   class="st1" />
    <line
   id="line120"
   y2="354.4"
   x2="420.9"
   y1="283"
   x1="321.8"
   class="st1" />
    <line
   id="line122"
   y2="283"
   x2="520.1"
   y1="354.4"
   x1="420.9"
   class="st1" />
    <line
   id="line124"
   y2="166.8"
   x2="482.1"
   y1="283"
   x1="520.1"
   class="st1" />
    <line
   id="line126"
   y2="319.5"
   x2="469.4"
   y1="225.5"
   x1="501.3"
   class="st1" />
    <line
   id="line128"
   y2="318.7"
   x2="371.3"
   y1="319.5"
   x1="469.4"
   class="st1" />
    <line
   id="line130"
   y2="225.5"
   x2="340.6"
   y1="318.7"
   x1="371.3"
   class="st1" />
    <line
   id="line132"
   y2="166.8"
   x2="420.5"
   y1="225.5"
   x1="340.6"
   class="st1" />
    <line
   id="line134"
   y2="225.5"
   x2="501.3"
   y1="166.8"
   x1="420.5"
   class="st1" />
    <line
   id="line136"
   y2="354.4"
   x2="420.9"
   y1="77.4"
   x1="420.5"
   class="st1" />
    <line
   id="line138"
   y2="166.8"
   x2="359.8"
   y1="166.8"
   x1="482.1"
   class="st1" />
    <line
   id="line140"
   y2="77.4"
   x2="420.5"
   y1="166.9"
   x1="359.8"
   class="st2" />
    <line
   id="line142"
   y2="77.4"
   x2="420.5"
   y1="166.9"
   x1="482.1"
   class="st2" />
</g><polygon
     id="polygon146"
     points="501.2,225.3 420.5,166.7 339.8,225.3 370.6,320.2 470.4,320.2 "
     class="st1" /><polygon
     id="polygon148"
     points="520.1,283 420.9,354.8 321.8,283 359.7,166.8 482.2,166.8 "
     class="st1" /><g
     id="g200">
    <line
   id="line150"
   y2="288.5"
   x2="479.2"
   y1="293.7"
   x1="420.4"
   class="st3" />
    <line
   id="line152"
   y2="293.7"
   x2="420.4"
   y1="288.5"
   x1="361.5"
   class="st3" />
    <g
   id="g198">
	<polygon
   id="polygon154"
   points="479.2,288.5 420.4,322.5 361.5,288.5 361.5,220.5 420.4,186.6 479.2,220.5   "
   class="st2" />
	<line
   id="line156"
   y2="215.2"
   x2="420.4"
   y1="220.4"
   x1="479.2"
   class="st2" />
	<line
   id="line158"
   y2="215.2"
   x2="420.4"
   y1="220.5"
   x1="361.5"
   class="st2" />
	<line
   id="line160"
   y2="274.1"
   x2="454.4"
   y1="220.5"
   x1="479.2"
   class="st2" />
	<line
   id="line162"
   y2="274.1"
   x2="454.4"
   y1="322.5"
   x1="420.4"
   class="st2" />
	<line
   id="line164"
   y2="274.1"
   x2="386.4"
   y1="220.5"
   x1="361.5"
   class="st2" />
	<line
   id="line166"
   y2="274.1"
   x2="386.4"
   y1="322.5"
   x1="420.4"
   class="st2" />
	<polygon
   id="polygon168"
   points="454.4,274.1 420.4,215.2 386.4,274.1   "
   class="st2" />
	<polygon
   id="polygon170"
   points="386.4,234.4 420.4,293.2 454.4,234.4   "
   class="st2" />
	<line
   id="line172"
   y2="234.4"
   x2="386.4"
   y1="220.5"
   x1="361.5"
   class="st2" />
	<line
   id="line174"
   y2="220.5"
   x2="479.2"
   y1="234.4"
   x1="454.4"
   class="st2" />
	<line
   id="line176"
   y2="322.5"
   x2="420.4"
   y1="293.2"
   x1="420.4"
   class="st2" />
	<circle
   id="circle178"
   r="4.1"
   cy="322.5"
   cx="420.4"
   class="st4" />
	<circle
   id="circle180"
   r="4.1"
   cy="220.5"
   cx="361.5"
   class="st4" />
	<circle
   id="circle182"
   r="4.1"
   cy="274.1"
   cx="386.4"
   class="st4" />
	<circle
   id="circle184"
   r="4.1"
   cy="274.1"
   cx="454.4"
   class="st4" />
	<circle
   id="circle186"
   r="4.1"
   cy="215.2"
   cx="420.4"
   class="st4" />
	<circle
   id="circle188"
   r="4.1"
   cy="220.5"
   cx="479.2"
   class="st4" />
	<line
   id="line190"
   y2="234.4"
   x2="454.4"
   y1="288.5"
   x1="479.2"
   class="st2" />
	<line
   id="line192"
   y2="234.4"
   x2="454.4"
   y1="186.6"
   x1="420.4"
   class="st2" />
	<line
   id="line194"
   y2="234.4"
   x2="386.4"
   y1="288.5"
   x1="361.5"
   class="st2" />
	<line
   id="line196"
   y2="234.4"
   x2="386.4"
   y1="186.6"
   x1="420.4"
   class="st2" />
    </g>
</g><line
     id="line202"
     y2="186.6"
     x2="420.5"
     y1="166.8"
     x1="420.5"
     class="st2" /><line
     id="line204"
     y2="318.7"
     x2="371.3"
     y1="322.5"
     x1="420.4"
     class="st2" /><line
     id="line206"
     y2="322.5"
     x2="420.4"
     y1="319.5"
     x1="469.4"
     class="st2" /><line
     id="line208"
     y2="220.5"
     x2="361.5"
     y1="225.5"
     x1="340.6"
     class="st2" /><line
     id="line210"
     y2="220.5"
     x2="479.2"
     y1="225.5"
     x1="501.3"
     class="st2" /><line
     id="line212"
     y2="283"
     x2="321.8"
     y1="288.5"
     x1="361.5"
     class="st2" /><line
     id="line214"
     y2="283"
     x2="520.1"
     y1="288.5"
     x1="479.2"
     class="st2" /><line
     id="line216"
     y2="186.6"
     x2="420.4"
     y1="166.8"
     x1="359.7"
     class="st2" /><line
     id="line218"
     y2="186.6"
     x2="420.4"
     y1="166.8"
     x1="482.2"
     class="st2" /></g>
</svg>