<?xml version="1.0" encoding="UTF-8" standalone="no"?>
<svg
   xmlns:dc="http://purl.org/dc/elements/1.1/"
   xmlns:cc="http://creativecommons.org/ns#"
   xmlns:rdf="http://www.w3.org/1999/02/22-rdf-syntax-ns#"
   xmlns:svg="http://www.w3.org/2000/svg"
   xmlns="http://www.w3.org/2000/svg"
   xmlns:sodipodi="http://sodipodi.sourceforge.net/DTD/sodipodi-0.dtd"
   xmlns:inkscape="http://www.inkscape.org/namespaces/inkscape"
   id="svg1"
   viewBox="0 0 60 60"
   sodipodi:version="0.32"
   _SVGFile__filename="oldscale/actions/view_remove.svg"
   version="1.0"
   inkscape:version="0.92.2 2405546, 2018-03-11"
   y="0"
   x="0"
   sodipodi:docname="primary-kdb-form.svg">
  <defs
     id="defs43185" />
  <sodipodi:namedview
     id="base"
     bordercolor="#666666"
     inkscape:window-x="1280"
     inkscape:window-y="20"
     pagecolor="#ffffff"
     inkscape:zoom="3.245566"
     inkscape:pageshadow="2"
     borderopacity="1.0"
     inkscape:current-layer="svg1"
     inkscape:cx="48.610944"
     inkscape:cy="21.977997"
     inkscape:window-width="1918"
     inkscape:pageopacity="0.0"
     inkscape:window-height="1058"
     showgrid="false"
     inkscape:window-maximized="0" />
  <g
     id="g1723"
     transform="translate(-.00047550 6.3352)">
    <g
       id="g1730"
       transform="translate(.84832 -.94025)">
      <path
         id="path1723"
         sodipodi:nodetypes="ccccccccc"
         style="stroke-linejoin:round;stroke:#ffffff;stroke-linecap:round;stroke-width:8.125;fill:none"
         d="m6.1358 5.6278c-1.2723 0-2.2966 1.3406-2.2966 3.006v31.942c0 1.666 1.0243 3.006 2.2966 3.006h46.032c1.273 0 2.297-1.34 2.297-3.006v-31.942c0-1.6656-1.024-3.0062-2.297-3.0062h-46.032z" />
      <g
         id="g1563"
         transform="matrix(.97014 0 0 .97014 -.0014143 1.1708)">
        <path
           id="rect921"
           sodipodi:nodetypes="ccccccccc"
           style="stroke-linejoin:round;fill-rule:evenodd;stroke-linecap:round;stroke-width:2.7315;fill:#ffffff"
           transform="matrix(1 0 0 1.3089 0 -8.4847)"
           d="m6.3262 9.9925c-1.3116 0-2.3674 1.0555-2.3674 2.3675v21.218c0 1.312 1.0558 2.368 2.3674 2.368h47.45c1.311 0 2.367-1.056 2.367-2.368v-21.218c0-1.312-1.056-2.3675-2.367-2.3675h-47.45z" />
        <path
           id="rect922"
           style="stroke-linejoin:round;fill-rule:evenodd;stroke-linecap:round;stroke-width:3.125;fill:#5e8fcb"
           d="m6.28 4.4817c-1.286 0-2.3212 1.0353-2.3212 2.3212v4.0791c0 1.286 1.0352 2.321 2.3212 2.321h47.542c1.286 0 2.321-1.035 2.321-2.321v-4.0791c0-1.2859-1.035-2.3212-2.321-2.3212h-47.542z" />
        <path
           id="path923"
           style="stroke-linejoin:round;stroke:#000000;stroke-linecap:round;stroke-width:1.9327;fill:none"
           d="m53.029 7.6135l-2.706 2.7065m-0.063-2.7694l2.769 2.7694" />
        <path
           id="rect1561"
           sodipodi:nodetypes="ccccccccc"
           style="stroke-linejoin:round;stroke:#000000;stroke-linecap:round;stroke-width:2.8156;fill:none"
           transform="matrix(1 0 0 1.3089 0 -8.4847)"
           d="m6.3262 9.9925c-1.3116 0-2.3674 1.0555-2.3674 2.3675v25.156c0 1.311 1.0558 2.367 2.3674 2.367h47.45c1.311 0 2.367-1.056 2.367-2.367v-25.156c0-1.312-1.056-2.3675-2.367-2.3675h-47.45z" />
        <path
           id="rect1558"
           style="fill:none;stroke:#000000;stroke-width:3.22118457;stroke-linecap:round;stroke-linejoin:round;stroke-miterlimit:4;stroke-dasharray:none"
           d="M 4.0149436,10.994287 C 4.0149436,12.280287 4.994,13.203 6.28,13.203 h 47.546 c 1.286,0 2.321,-1.035 2.321,-2.321"
           inkscape:connector-curvature="0"
           sodipodi:nodetypes="cssc" />
      </g>
    </g>
    <path
       id="path1099"
       style="stroke-linejoin:round;stroke:#000000;stroke-linecap:round;stroke-width:5;fill:none"
       d="m10.977 19.872h25.732" />
    <path
       id="path1721"
       sodipodi:nodetypes="cc"
       style="stroke-linejoin:round;stroke:#000000;stroke-linecap:round;stroke-width:5;fill:none"
       d="m10.977 27.372h18.232" />
    <path
       id="path1722"
       sodipodi:nodetypes="cc"
       style="stroke-linejoin:round;stroke:#000000;stroke-linecap:round;stroke-width:5;fill:none"
       d="m30.655 36.312h18.233" />
  </g>
  <metadata
     id="metadata43182">
    <rdf:RDF>
      <cc:Work>
        <dc:format>image/svg+xml</dc:format>
        <dc:type
           rdf:resource="http://purl.org/dc/dcmitype/StillImage" />
        <cc:license
           rdf:resource="http://creativecommons.org/licenses/publicdomain/" />
        <dc:publisher>
          <cc:Agent
             rdf:about="http://openclipart.org/">
            <dc:title>Openclipart</dc:title>
          </cc:Agent>
        </dc:publisher>
      </cc:Work>
      <cc:License
         rdf:about="http://creativecommons.org/licenses/publicdomain/">
        <cc:permits
           rdf:resource="http://creativecommons.org/ns#Reproduction" />
        <cc:permits
           rdf:resource="http://creativecommons.org/ns#Distribution" />
        <cc:permits
           rdf:resource="http://creativecommons.org/ns#DerivativeWorks" />
      </cc:License>
    </rdf:RDF>
  </metadata>
</svg>
